<?xml version="1.0" standalone="no"?>
<!DOCTYPE svg PUBLIC "-//W3C//DTD SVG 1.1//EN" "http://www.w3.org/Graphics/SVG/1.1/DTD/svg11.dtd" >
<svg xmlns="http://www.w3.org/2000/svg" xmlns:xlink="http://www.w3.org/1999/xlink" version="1.1">
<metadata>
Created by FontForge 20170731 at Sun Jun  6 20:28:19 2021
 By Aleksey,,,
</metadata>
<defs>
<font id="RadiotechnikaRegular" horiz-adv-x="981" >
  <font-face 
    font-family="Radiotechnika"
    font-weight="400"
    font-stretch="normal"
    units-per-em="1000"
    panose-1="0 0 0 0 0 0 0 0 0 0"
    ascent="800"
    descent="-200"
    x-height="700"
    cap-height="700"
    bbox="4 -97 1464 857"
    underline-thickness="50"
    underline-position="-200"
    unicode-range="U+000A-F007"
  />
<missing-glyph horiz-adv-x="527" 
d="M50 700h427v-700h-427v700zM78 680l185 -309l186 309h-371zM251 350l-180 300v-601zM264 329l-185 -308h370zM276 350l181 -303v605z" />
    <glyph glyph-name=".notdef" horiz-adv-x="527" 
d="M50 700h427v-700h-427v700zM78 680l185 -309l186 309h-371zM251 350l-180 300v-601zM264 329l-185 -308h370zM276 350l181 -303v605z" />
    <glyph glyph-name=".null" horiz-adv-x="0" 
 />
    <glyph glyph-name=".null" horiz-adv-x="0" 
 />
    <glyph glyph-name="nonmarkingreturn" horiz-adv-x="333" 
 />
    <glyph glyph-name="controlLF" unicode="&#xa;" horiz-adv-x="0" 
 />
    <glyph glyph-name="controlCR" unicode="&#xd;" horiz-adv-x="0" 
 />
    <glyph glyph-name="space" unicode=" " horiz-adv-x="442" 
 />
    <glyph glyph-name="exclam" unicode="!" horiz-adv-x="239" 
d="M78 0v82h82v-82h-82zM78 123v576h82v-576h-82z" />
    <glyph glyph-name="quotedbl" unicode="&#x22;" horiz-adv-x="280" 
d="M38 699h82v-82l-82 -82v164zM161 699h83v-82l-83 -82v164z" />
    <glyph glyph-name="quotedbl" unicode="&#x201d;" horiz-adv-x="280" 
d="M38 699h82v-82l-82 -82v164zM161 699h83v-82l-83 -82v164z" />
    <glyph glyph-name="quotedbl" unicode="&#x201c;" horiz-adv-x="280" 
d="M38 699h82v-82l-82 -82v164zM161 699h83v-82l-83 -82v164z" />
    <glyph glyph-name="numbersign" unicode="#" horiz-adv-x="958" 
d="M878 418h-135l-75 -165h134l-38 -82h-134l-85 -186h-91l85 186h-271l-85 -186h-91l85 186h-134l37 82h135l75 165h-135l38 82h135l85 185h91l-85 -185h271l85 185h91l-85 -185h134zM577 253l76 165h-272l-76 -165h272z" />
    <glyph glyph-name="dollar" unicode="$" horiz-adv-x="967" 
d="M779 377q47 -2 80.5 -35.5t35.5 -80.5v-100q-1 -33 -3 -65q-2 -47 -35.5 -80.5t-80.5 -35.5q-99 -4 -190 -6v-51h-82v50h-20.5h-20.5v-50h-82v51q-91 2 -190 6q-47 2 -80.5 35.5t-35.5 80.5q-2 32 -3 65h82q1 -31 3 -61q1 -15 11.5 -26t26.5 -12q97 -4 186 -6v239h-193
q-47 2 -80 35.5t-36 80.5v100q1 34 3 65q2 47 35.5 80.5t80.5 35.5q99 5 190 6v49h82v-48h20.5h20.5v48h82v-49q91 -1 190 -6q47 -2 80.5 -35.5t35.5 -80.5q2 -31 3 -65h-82q-1 31 -3 61q-1 16 -11.5 26.5t-26.5 11.5q-97 4 -186 6v-239h193zM483.5 617h-20.5v-240h41v240
h-20.5zM192 377h189v239q-89 -2 -186 -6q-16 -1 -26.5 -12t-11.5 -26q-1 -29 -3 -61v-96q1 -16 12 -26.5t26 -11.5zM483.5 55h20.5v240h-41v-240h20.5zM813 161v96q-1 16 -12 26.5t-26 11.5h-189v-239q89 2 186 6q15 1 26 12t12 26q1 30 3 61z" />
    <glyph glyph-name="percent" unicode="%" horiz-adv-x="1048" 
d="M862 700h125l-401 -350l-62 -55l-338 -295h-125l400 350l63 54zM177 345q-31 1 -57 17t-42 42t-17 57v123q2 47 35.5 80t80.5 36h123q47 -3 80 -36.5t36 -80.5v-122q-3 -47 -36.5 -80.5t-80.5 -35.5h-122zM155 606q-11 -11 -12 -26v-115q1 -15 12 -26t26 -12h115
q15 1 26 11.5t11 26.5v115q0 15 -11 26t-26 11h-115q-15 0 -26 -11zM871 355q47 -3 80.5 -36.5t35.5 -80.5v-122q-3 -47 -36 -80.5t-80 -35.5h-123q-47 2 -80.5 35.5t-35.5 80.5v123q2 47 35.5 80t80.5 36h123zM893 94q11 11 12 26l-1 115q0 15 -11 26t-26 11h-115
q-15 0 -26 -11t-12 -26v-115q1 -15 12 -26t26 -12h115q15 1 26 12z" />
    <glyph glyph-name="quotesingle" unicode="'" horiz-adv-x="157" 
d="M38 699h82v-82l-82 -82v164z" />
    <glyph glyph-name="quotesingle" unicode="&#x2019;" horiz-adv-x="157" 
d="M38 699h82v-82l-82 -82v164z" />
    <glyph glyph-name="quotesingle" unicode="&#x2018;" horiz-adv-x="157" 
d="M38 699h82v-82l-82 -82v164z" />
    <glyph glyph-name="parenleft" unicode="(" horiz-adv-x="266" 
d="M160 589v-472q1 -15 12 -26t26 -12v-82h-4q-47 2 -80.5 35.5t-35.5 80.5v480q2 47 35.5 80t80.5 35h4v-82q-15 0 -26 -11t-12 -26z" />
    <glyph glyph-name="parenright" unicode=")" horiz-adv-x="266" 
d="M188 593v-480q-2 -47 -35.5 -80.5t-80.5 -35.5h-4v82q15 1 26 12t12 26v472q-1 15 -12 26t-26 11v82h4q47 -2 80.5 -35t35.5 -80z" />
    <glyph glyph-name="asterisk" unicode="*" horiz-adv-x="338" 
d="M297 587l-46 -26l46 -26l-41 -72l-46 27v-53h-82v53l-46 -27l-41 72l46 26l-46 26l41 72l46 -27v53h82v-53l46 27z" />
    <glyph glyph-name="plus" unicode="+" horiz-adv-x="495" 
d="M453 376v-82h-164v-164h-83v164h-164v82h164v165h83v-165h164z" />
    <glyph glyph-name="comma" unicode="," horiz-adv-x="137" 
d="M27 82h82v-82l-82 -83v165z" />
    <glyph glyph-name="hyphen" unicode="-" horiz-adv-x="301" 
d="M274 294h-247v82h247v-82z" />
    <glyph glyph-name="period" unicode="." horiz-adv-x="137" 
d="M27 82h82v-82h-82v82z" />
    <glyph glyph-name="slash" unicode="/" horiz-adv-x="481" 
d="M446 700l-266 -581l-54 -119h-91l85 185l236 515h90z" />
    <glyph glyph-name="zero" unicode="0" horiz-adv-x="1001" 
d="M500 640q-149 0 -298 -7q-15 -1 -26 -11.5t-12 -26.5q-12 -236 0 -471q1 -16 12 -26.5t26 -11.5q149 -7 298 -7t299 7q15 1 26 11.5t11 26.5q12 235 0 471q0 16 -11 26.5t-26 11.5q-150 7 -299 7zM198 715q151 7 302 7t302 -7q47 -2 80.5 -35.5t35.5 -80.5
q13 -240 1 -480q-3 -47 -36.5 -80t-80.5 -35q-151 -7 -302 -7t-302 7q-47 2 -80.5 35t-35.5 80q-12 240 0 480q2 31 17.5 57t41.5 42t57 17z" />
    <glyph glyph-name="one" unicode="1" horiz-adv-x="421" 
d="M227 703h114v-700h-82v617l-102 -92h-122z" />
    <glyph glyph-name="two" unicode="2" horiz-adv-x="965" 
d="M151 192v-107h741v-82h-823v193q2 47 35.5 80.5t80.5 35.5h587q15 0 26 11t12 26v179q-2 31 -3 61q-1 15 -11.5 26t-26.5 11q-149 7 -288.5 7t-288.5 -7q-16 0 -26.5 -11t-11.5 -26q-2 -30 -3 -61h-82q1 33 3 65q2 47 35.5 80t80.5 36q151 7 292.5 7t292.5 -7
q47 -2 80.5 -35.5t35.5 -80.5q2 -32 3 -65v-183q-2 -47 -35.5 -80t-80.5 -35h-587q-15 -1 -26 -12t-12 -26z" />
    <glyph glyph-name="three" unicode="3" horiz-adv-x="975" 
d="M898 599v-123q-2 -42 -31 -74q29 -32 31 -75v-208q-2 -30 -17.5 -56.5t-41.5 -42t-57 -16.5q-151 -7 -299 -7q-151 0 -302 7q-47 2 -80.5 35t-35.5 80q-2 32 -3 66h82q1 -31 3 -61q1 -16 11.5 -26.5t26.5 -11.5q149 -7 298 -7q146 0 295 7q15 1 26 11.5t12 26.5v199
q-1 15 -12 26t-26 12l-446 -2v84h446q15 1 26 11.5t12 25.5v115q-1 16 -12 26.5t-26 11.5q-149 7 -295 7q-149 0 -298 -7q-16 -1 -26.5 -11.5t-11.5 -26.5q-2 -30 -3 -61h-82q1 34 3 65q2 47 35.5 80.5t80.5 35.5q151 7 302 7q148 0 299 -7q47 -2 80 -35.5t36 -80.5z" />
    <glyph glyph-name="four" unicode="4" horiz-adv-x="821" 
d="M708 168h52v-82h-52v-83h-82v83h-576v146l517 471h141v-535zM132 168h494v452h-28l-466 -425v-27z" />
    <glyph glyph-name="five" unicode="5" horiz-adv-x="968" 
d="M896 633h-741v-150q17 5 34 6h591q47 -2 80.5 -35t35.5 -80v-183q-1 -33 -3 -65q-2 -47 -35.5 -80.5t-80.5 -35.5q-151 -7 -292.5 -7t-292.5 7q-47 2 -80.5 35.5t-35.5 80.5q-2 32 -3 65h82q1 -31 3 -61q1 -15 11.5 -26t26.5 -12q149 -6 288.5 -6t288.5 6q16 1 26.5 12
t11.5 26q1 30 3 61v178q-1 16 -12 26.5t-26 11.5h-583q-15 -1 -26 -11.5t-12 -26.5h-82v347h823v-83z" />
    <glyph glyph-name="six" unicode="6" horiz-adv-x="988" 
d="M798 442q47 -2 80.5 -35.5t35.5 -80.5v-141q-1 -33 -3 -66q-2 -47 -35.5 -80t-80.5 -35q-151 -7 -302 -7q-148 0 -299 7q-47 2 -80.5 35t-35.5 80v480q2 47 35.5 80.5t80.5 35.5q151 7 299 7q151 0 302 -7q47 -2 80.5 -35.5t35.5 -80.5q2 -31 3 -65h-83q-1 31 -2 61
q-1 16 -12 26.5t-26 11.5q-149 7 -298 7q-146 0 -295 -7q-15 -1 -26 -11.5t-12 -26.5v-152h484zM831 185l1 137q-1 16 -12 26.5t-26 11.5l-150 -1l-484 2v-237q1 -16 12 -26.5t26 -11.5q149 -7 295 -7q149 0 298 7q15 1 26 11.5t12 26.5q1 30 2 61z" />
    <glyph glyph-name="seven" unicode="7" horiz-adv-x="902" 
d="M34 703h823v-110v-32l-506 -558h-111l535 590v27h-741v83z" />
    <glyph glyph-name="eight" unicode="8" horiz-adv-x="975" 
d="M869 401q28 -32 30 -74v-143q-1 -33 -3 -65q-2 -47 -35.5 -80t-80.5 -35q-151 -7 -292.5 -7t-292.5 7q-47 2 -80.5 35t-35.5 80q-2 32 -3 65v143q2 42 31 74q-29 32 -31 75v58q1 34 3 65q2 47 35.5 80.5t80.5 35.5q151 7 292.5 7t292.5 -7q47 -2 80.5 -35.5t35.5 -80.5
q2 -31 3 -65v-58q-2 -43 -30 -75zM161 595q-2 -30 -3 -61v-54q1 -15 12 -26t26 -12h583q15 1 26 12t12 26v54q-2 31 -3 61q-1 15 -12 26t-26 12q-149 7 -288.5 7t-288.5 -7q-16 -1 -26.5 -12t-11.5 -26zM817 184v139q-1 15 -12 25.5t-26 11.5h-291h-292q-15 -1 -26 -11.5
t-12 -25.5v-139q1 -30 3 -60q1 -16 11.5 -26.5t26.5 -11.5q149 -7 288.5 -7t288.5 7q16 1 26.5 11.5t11.5 26.5q1 30 3 60z" />
    <glyph glyph-name="nine" unicode="9" horiz-adv-x="988" 
d="M190 276q-47 3 -80.5 36.5t-35.5 80.5v141q1 33 3 65q2 47 35.5 80.5t80.5 35.5q151 7 302 7q148 0 299 -7q47 -2 80 -35.5t36 -80.5v-480q-3 -47 -36 -80t-80 -35q-151 -7 -299 -7q-151 0 -302 7q-47 2 -80.5 35t-35.5 80q-2 32 -3 65h82q1 -30 3 -60q1 -16 11.5 -26.5
t26.5 -11.5q149 -7 298 -7q146 0 295 7q15 1 26 11.5t12 26.5v152h-484h-154zM156 534v-138q1 -15 12 -26t26 -11h150l484 -1v237q-1 16 -12 26.5t-26 11.5q-149 7 -295 7q-149 0 -298 -7q-16 -1 -26.5 -11.5t-11.5 -26.5q-2 -30 -3 -61z" />
    <glyph glyph-name="colon" unicode=":" horiz-adv-x="157" 
d="M37 -14v82h82v-82h-82zM37 295v82h82v-82h-82z" />
    <glyph glyph-name="semicolon" unicode=";" horiz-adv-x="157" 
d="M37 295v82h82v-82h-82zM37 68h82v-82l-82 -83v165z" />
    <glyph glyph-name="less" unicode="&#x3c;" horiz-adv-x="599" 
d="M436 0l-400 350l400 350h125l-400 -350l400 -350h-125z" />
    <glyph glyph-name="equal" unicode="=" horiz-adv-x="487" 
d="M38 438h411v-82h-411v82zM38 315h411v-83h-411v83z" />
    <glyph glyph-name="greater" unicode="&#x3e;" horiz-adv-x="599" 
d="M162 700l400 -350l-400 -350h-125l400 350l-400 350h125z" />
    <glyph glyph-name="question" unicode="?" horiz-adv-x="760" 
d="M413 0h-82v82h82v-82zM698 593q2 -31 3 -65v-104q-2 -31 -17.5 -57t-41.5 -41.5t-57 -17.5h-134q-15 0 -26 -11t-12 -26v-148h-82v152q2 47 35.5 80.5t80.5 35.5h134q15 0 26 11t12 26v100q-1 31 -3 61q-1 16 -11.5 26.5t-26.5 11.5q-149 7 -206 7t-206 -7
q-16 -1 -26.5 -12t-11.5 -26q-2 -30 -3 -61h-82q1 34 3 65q2 47 35.5 80.5t80.5 35.5q151 7 210 7t210 -7q47 -2 80.5 -35.5t35.5 -80.5z" />
    <glyph glyph-name="at" unicode="@" horiz-adv-x="995" 
d="M919 81v-82q-150 -7 -357 -7q-213 0 -364 7q-47 2 -80.5 35.5t-35.5 80.5q-12 240 0 480q2 31 17.5 57t41.5 41.5t57 16.5q151 7 302 7t302 -7q47 -2 80.5 -35t36.5 -80v-321q-2 -31 -18 -57t-42 -41.5t-57 -17.5h-9q-42 2 -74 31q-32 -29 -75 -31h-287q-47 3 -80 36
t-36 80v161q2 31 17.5 57t42 41.5t57.5 17.5h286q17 -1 34 -7v7h82v-216v-58q1 -15 11 -25q11 -11 26 -12h2q15 1 26 12t11 26v312q0 16 -11 26.5t-26 11.5q-150 7 -299 7t-298 -7q-15 -1 -26 -11.5t-12 -26.5q-12 -235 0 -471q1 -16 12 -26.5t26 -11.5q149 -7 360 -7
q207 0 357 7zM640 240q15 1 26 12t12 26v57v96q-1 15 -12 26t-26 11h-279q-15 0 -26 -11t-11 -26v-153q0 -15 11 -26t26 -12h279z" />
    <glyph glyph-name="A" unicode="A" horiz-adv-x="851" 
d="M746 0l-69 151h-503l-69 -151h-91l321 700h181l321 -700h-91zM212 233h427l-176 384h-75z" />
    <glyph glyph-name="A" unicode="&#xc5;" horiz-adv-x="851" 
d="M746 0l-69 151h-503l-69 -151h-91l321 700h181l321 -700h-91zM212 233h427l-176 384h-75z" />
    <glyph glyph-name="A" unicode="&#xc4;" horiz-adv-x="851" 
d="M746 0l-69 151h-503l-69 -151h-91l321 700h181l321 -700h-91zM212 233h427l-176 384h-75z" />
    <glyph glyph-name="A" unicode="&#xc3;" horiz-adv-x="851" 
d="M746 0l-69 151h-503l-69 -151h-91l321 700h181l321 -700h-91zM212 233h427l-176 384h-75z" />
    <glyph glyph-name="A" unicode="&#xc2;" horiz-adv-x="851" 
d="M746 0l-69 151h-503l-69 -151h-91l321 700h181l321 -700h-91zM212 233h427l-176 384h-75z" />
    <glyph glyph-name="A" unicode="&#xc1;" horiz-adv-x="851" 
d="M746 0l-69 151h-503l-69 -151h-91l321 700h181l321 -700h-91zM212 233h427l-176 384h-75z" />
    <glyph glyph-name="A" unicode="&#xc0;" horiz-adv-x="851" 
d="M746 0l-69 151h-503l-69 -151h-91l321 700h181l321 -700h-91zM212 233h427l-176 384h-75z" />
    <glyph glyph-name="B" unicode="B" horiz-adv-x="960" 
d="M838 419q28 -15 45 -42t19 -60v-201q-2 -47 -35.5 -80.5t-80.5 -35.5h-707v700h656q47 -3 80 -36.5t35 -80.5v-116q-1 -26 -12 -48zM730 617h-569v-184h570q15 1 25.5 12t11.5 26v109q-1 15 -11.5 26t-26.5 11zM820 120v193q-1 16 -12 26.5t-26 11.5l-621 -1v-268h621
q15 1 26 12t12 26z" />
    <glyph glyph-name="C" unicode="C" horiz-adv-x="966" 
d="M833 114q2 30 3 61h82q-1 -33 -2 -65q-3 -47 -36.5 -80.5t-80.5 -35.5q-151 -7 -302 -7t-302 7q-47 2 -80.5 35.5t-35.5 80.5q-12 240 0 480q2 47 35.5 80t80.5 35q151 7 302 7t302 -7q47 -2 80.5 -35t36.5 -80q1 -32 2 -65h-82q-1 31 -3 61q0 15 -11 26t-26 11
q-150 7 -299 7t-298 -7q-15 0 -26 -11t-12 -26q-12 -236 0 -472q1 -15 12 -26t26 -12q149 -7 298 -7t299 7q15 1 26 12t11 26z" />
    <glyph glyph-name="C" unicode="&#xc7;" horiz-adv-x="966" 
d="M833 114q2 30 3 61h82q-1 -33 -2 -65q-3 -47 -36.5 -80.5t-80.5 -35.5q-151 -7 -302 -7t-302 7q-47 2 -80.5 35.5t-35.5 80.5q-12 240 0 480q2 47 35.5 80t80.5 35q151 7 302 7t302 -7q47 -2 80.5 -35t36.5 -80q1 -32 2 -65h-82q-1 31 -3 61q0 15 -11 26t-26 11
q-150 7 -299 7t-298 -7q-15 0 -26 -11t-12 -26q-12 -236 0 -472q1 -15 12 -26t26 -12q149 -7 298 -7t299 7q15 1 26 12t11 26z" />
    <glyph glyph-name="D" unicode="D" horiz-adv-x="996" 
d="M97 0v617h-51v83h758q47 -3 80.5 -36t35.5 -80v-468q-2 -47 -35.5 -80.5t-80.5 -35.5h-707zM838 120v460q-1 15 -11.5 26t-26.5 11h-620v-535h620q16 1 26.5 12t11.5 26z" />
    <glyph glyph-name="E" unicode="E" horiz-adv-x="791" 
d="M737 617h-576v-226h576v-82h-576v-227h576v-82h-658v700h658v-83z" />
    <glyph glyph-name="E" unicode="&#xcb;" horiz-adv-x="791" 
d="M737 617h-576v-226h576v-82h-576v-227h576v-82h-658v700h658v-83z" />
    <glyph glyph-name="E" unicode="&#xca;" horiz-adv-x="791" 
d="M737 617h-576v-226h576v-82h-576v-227h576v-82h-658v700h658v-83z" />
    <glyph glyph-name="E" unicode="&#xc9;" horiz-adv-x="791" 
d="M737 617h-576v-226h576v-82h-576v-227h576v-82h-658v700h658v-83z" />
    <glyph glyph-name="E" unicode="&#xc8;" horiz-adv-x="791" 
d="M737 617h-576v-226h576v-82h-576v-227h576v-82h-658v700h658v-83z" />
    <glyph glyph-name="F" unicode="F" horiz-adv-x="766" 
d="M161 0h-82v700h658v-83h-576v-226h525v-82h-525v-309z" />
    <glyph glyph-name="G" unicode="G" horiz-adv-x="983" 
d="M351 307v83h451q47 -3 80.5 -36t35.5 -80v-99q-1 -33 -2 -65q-3 -47 -36.5 -80.5t-80.5 -35.5q-151 -7 -302 -7t-302 7q-47 2 -80.5 35.5t-35.5 80.5q-12 240 0 480q2 47 35.5 80t80.5 35q151 7 302 7t302 -7q47 -2 80.5 -35t35.5 -80q2 -31 3 -65h-82q-1 31 -3 61
q0 15 -11 26t-26 11q-150 7 -299 7t-298 -7q-15 0 -26 -11t-12 -26q-12 -236 0 -472q1 -15 12 -26t26 -12q149 -7 298 -7t299 7q15 1 26 12t11 26q2 30 3 61v95q-1 15 -11.5 26t-26.5 11h-447z" />
    <glyph glyph-name="H" unicode="H" 
d="M820 700h82v-700h-82v309h-659v-309h-82v700h82v-309h659v309z" />
    <glyph glyph-name="I" unicode="I" horiz-adv-x="241" 
d="M161 0h-82v700h82v-700z" />
    <glyph glyph-name="I" unicode="&#xcf;" horiz-adv-x="241" 
d="M161 0h-82v700h82v-700z" />
    <glyph glyph-name="I" unicode="&#xce;" horiz-adv-x="241" 
d="M161 0h-82v700h82v-700z" />
    <glyph glyph-name="I" unicode="&#xcd;" horiz-adv-x="241" 
d="M161 0h-82v700h82v-700z" />
    <glyph glyph-name="I" unicode="&#xcc;" horiz-adv-x="241" 
d="M161 0h-82v700h82v-700z" />
    <glyph glyph-name="J" unicode="J" horiz-adv-x="429" 
d="M232 -3h-89q-47 2 -80.5 35.5t-35.5 80.5q-2 31 -3 65h82q1 -31 3 -61q1 -15 11.5 -26t26.5 -12h81q16 1 26.5 12t11.5 26q2 30 3 61v525h82v-525q-1 -34 -3 -65q-2 -47 -35.5 -80.5t-80.5 -35.5z" />
    <glyph glyph-name="K" unicode="K" horiz-adv-x="914" 
d="M903 700l-514 -350l514 -350h-146l-454 309h-141v-309h-82v699h82v-308h141l453 308z" />
    <glyph glyph-name="L" unicode="L" horiz-adv-x="670" 
d="M655 82v-82h-576v700h82v-618h494z" />
    <glyph glyph-name="M" unicode="M" horiz-adv-x="1084" 
d="M859 700h146v-700h-83v617h-14l-325 -617h-82l-326 617h-14v-617h-82v700h146l317 -601z" />
    <glyph glyph-name="N" unicode="N" 
d="M820 700h82v-700h-146l-571 617h-24v-617h-82v700h146l567 -618h28v618z" />
    <glyph glyph-name="N" unicode="&#xd1;" 
d="M820 700h82v-700h-146l-571 617h-24v-617h-82v700h146l567 -618h28v618z" />
    <glyph glyph-name="O" unicode="O" horiz-adv-x="995" 
d="M497 630q-149 0 -298 -7q-15 0 -26 -11t-12 -26q-12 -236 0 -472q1 -15 12 -26t26 -12q149 -7 298 -7t299 7q15 1 26 12t11 26q12 236 0 472q0 15 -11 26t-26 11q-150 7 -299 7zM195 705q151 7 302 7t302 -7q47 -2 80.5 -35t35.5 -80q13 -240 0 -480q-2 -47 -35.5 -80.5
t-80.5 -35.5q-151 -7 -302 -7t-302 7q-47 2 -80.5 35.5t-35.5 80.5q-12 240 0 480q2 47 35.5 80t80.5 35z" />
    <glyph glyph-name="O" unicode="&#xd8;" horiz-adv-x="995" 
d="M497 630q-149 0 -298 -7q-15 0 -26 -11t-12 -26q-12 -236 0 -472q1 -15 12 -26t26 -12q149 -7 298 -7t299 7q15 1 26 12t11 26q12 236 0 472q0 15 -11 26t-26 11q-150 7 -299 7zM195 705q151 7 302 7t302 -7q47 -2 80.5 -35t35.5 -80q13 -240 0 -480q-2 -47 -35.5 -80.5
t-80.5 -35.5q-151 -7 -302 -7t-302 7q-47 2 -80.5 35.5t-35.5 80.5q-12 240 0 480q2 47 35.5 80t80.5 35z" />
    <glyph glyph-name="O" unicode="&#xd6;" horiz-adv-x="995" 
d="M497 630q-149 0 -298 -7q-15 0 -26 -11t-12 -26q-12 -236 0 -472q1 -15 12 -26t26 -12q149 -7 298 -7t299 7q15 1 26 12t11 26q12 236 0 472q0 15 -11 26t-26 11q-150 7 -299 7zM195 705q151 7 302 7t302 -7q47 -2 80.5 -35t35.5 -80q13 -240 0 -480q-2 -47 -35.5 -80.5
t-80.5 -35.5q-151 -7 -302 -7t-302 7q-47 2 -80.5 35.5t-35.5 80.5q-12 240 0 480q2 47 35.5 80t80.5 35z" />
    <glyph glyph-name="O" unicode="&#xd5;" horiz-adv-x="995" 
d="M497 630q-149 0 -298 -7q-15 0 -26 -11t-12 -26q-12 -236 0 -472q1 -15 12 -26t26 -12q149 -7 298 -7t299 7q15 1 26 12t11 26q12 236 0 472q0 15 -11 26t-26 11q-150 7 -299 7zM195 705q151 7 302 7t302 -7q47 -2 80.5 -35t35.5 -80q13 -240 0 -480q-2 -47 -35.5 -80.5
t-80.5 -35.5q-151 -7 -302 -7t-302 7q-47 2 -80.5 35.5t-35.5 80.5q-12 240 0 480q2 47 35.5 80t80.5 35z" />
    <glyph glyph-name="O" unicode="&#xd4;" horiz-adv-x="995" 
d="M497 630q-149 0 -298 -7q-15 0 -26 -11t-12 -26q-12 -236 0 -472q1 -15 12 -26t26 -12q149 -7 298 -7t299 7q15 1 26 12t11 26q12 236 0 472q0 15 -11 26t-26 11q-150 7 -299 7zM195 705q151 7 302 7t302 -7q47 -2 80.5 -35t35.5 -80q13 -240 0 -480q-2 -47 -35.5 -80.5
t-80.5 -35.5q-151 -7 -302 -7t-302 7q-47 2 -80.5 35.5t-35.5 80.5q-12 240 0 480q2 47 35.5 80t80.5 35z" />
    <glyph glyph-name="O" unicode="&#xd3;" horiz-adv-x="995" 
d="M497 630q-149 0 -298 -7q-15 0 -26 -11t-12 -26q-12 -236 0 -472q1 -15 12 -26t26 -12q149 -7 298 -7t299 7q15 1 26 12t11 26q12 236 0 472q0 15 -11 26t-26 11q-150 7 -299 7zM195 705q151 7 302 7t302 -7q47 -2 80.5 -35t35.5 -80q13 -240 0 -480q-2 -47 -35.5 -80.5
t-80.5 -35.5q-151 -7 -302 -7t-302 7q-47 2 -80.5 35.5t-35.5 80.5q-12 240 0 480q2 47 35.5 80t80.5 35z" />
    <glyph glyph-name="O" unicode="&#xd2;" horiz-adv-x="995" 
d="M497 630q-149 0 -298 -7q-15 0 -26 -11t-12 -26q-12 -236 0 -472q1 -15 12 -26t26 -12q149 -7 298 -7t299 7q15 1 26 12t11 26q12 236 0 472q0 15 -11 26t-26 11q-150 7 -299 7zM195 705q151 7 302 7t302 -7q47 -2 80.5 -35t35.5 -80q13 -240 0 -480q-2 -47 -35.5 -80.5
t-80.5 -35.5q-151 -7 -302 -7t-302 7q-47 2 -80.5 35.5t-35.5 80.5q-12 240 0 480q2 47 35.5 80t80.5 35z" />
    <glyph glyph-name="P" unicode="P" horiz-adv-x="949" 
d="M902 583v-201q-2 -47 -35.5 -80t-80.5 -36h-625v-266h-82v700h707q31 -2 57 -17.5t41.5 -42t17.5 -57.5zM808 360q11 11 12 26v194q-1 15 -12 26t-26 11h-621v-267l621 -1q15 0 26 11z" />
    <glyph glyph-name="Q" unicode="Q" horiz-adv-x="995" 
d="M915 590q13 -240 0 -480q-1 -31 -17 -57t-42 -41.5t-57 -17.5q-36 -2 -77 -3l79 -54h-146l-75 51q-43 -1 -83 -1q-151 0 -302 7q-47 2 -80.5 35.5t-35.5 80.5q-12 240 0 480q2 47 35.5 80t80.5 35q151 7 302 7t302 -7q47 -2 80.5 -35t35.5 -80zM833 114q12 236 0 472
q0 15 -11 26t-26 11q-150 7 -299 7t-298 -7q-15 0 -26 -11t-12 -26q-12 -236 0 -472q1 -15 12 -26t26 -12q149 -7 298 -7t299 7q15 1 26 12t11 26z" />
    <glyph glyph-name="R" unicode="R" horiz-adv-x="930" 
d="M79 700h655q47 -3 80.5 -36.5t35.5 -80.5v-201q-2 -47 -35.5 -80t-80.5 -36h-223l391 -266h-146l-392 266h-203v-266h-82v700zM730 617h-569v-267l569 -1q16 0 26.5 11t11.5 26v194q-1 15 -11.5 26t-26.5 11z" />
    <glyph glyph-name="S" unicode="S" horiz-adv-x="953" 
d="M768 309h-587q-47 2 -80 35t-36 80v101q1 33 3 65q2 47 35.5 80.5t80.5 35.5q151 7 292.5 7t292.5 -7q47 -2 80.5 -35.5t35.5 -80.5q2 -32 3 -65h-82q-1 31 -3 61q-1 15 -11.5 26t-26.5 12q-149 6 -288.5 6t-288.5 -6q-16 -1 -26.5 -12t-11.5 -26q-1 -30 -3 -61v-96
q1 -16 12 -26.5t26 -11.5h587q47 -2 80.5 -35.5t35.5 -80.5v-101q-1 -33 -3 -64q-2 -48 -35.5 -81t-80.5 -35q-151 -7 -292.5 -7t-292.5 7q-47 2 -80.5 35t-35.5 81q-2 31 -3 64h82q1 -30 3 -60q1 -16 11.5 -26.5t26.5 -11.5q149 -7 288.5 -7t288.5 7q15 1 26 11.5t12 26.5
q1 30 3 60v97q-1 15 -12 26t-26 12z" />
    <glyph glyph-name="T" unicode="T" horiz-adv-x="689" 
d="M673 700v-83h-288v-617h-82v617h-288v83h658z" />
    <glyph glyph-name="U" unicode="U" horiz-adv-x="991" 
d="M77 116v590h82v-586q1 -15 12 -26t26 -11q149 -7 298 -7t299 7q15 0 26 11t11 26v586h83l-1 -590q-2 -47 -35.5 -80t-80.5 -36q-151 -6 -302 -6t-302 6q-47 3 -80.5 36t-35.5 80z" />
    <glyph glyph-name="U" unicode="&#xdc;" horiz-adv-x="991" 
d="M77 116v590h82v-586q1 -15 12 -26t26 -11q149 -7 298 -7t299 7q15 0 26 11t11 26v586h83l-1 -590q-2 -47 -35.5 -80t-80.5 -36q-151 -6 -302 -6t-302 6q-47 3 -80.5 36t-35.5 80z" />
    <glyph glyph-name="U" unicode="&#xdb;" horiz-adv-x="991" 
d="M77 116v590h82v-586q1 -15 12 -26t26 -11q149 -7 298 -7t299 7q15 0 26 11t11 26v586h83l-1 -590q-2 -47 -35.5 -80t-80.5 -36q-151 -6 -302 -6t-302 6q-47 3 -80.5 36t-35.5 80z" />
    <glyph glyph-name="U" unicode="&#xda;" horiz-adv-x="991" 
d="M77 116v590h82v-586q1 -15 12 -26t26 -11q149 -7 298 -7t299 7q15 0 26 11t11 26v586h83l-1 -590q-2 -47 -35.5 -80t-80.5 -36q-151 -6 -302 -6t-302 6q-47 3 -80.5 36t-35.5 80z" />
    <glyph glyph-name="U" unicode="&#xd9;" horiz-adv-x="991" 
d="M77 116v590h82v-586q1 -15 12 -26t26 -11q149 -7 298 -7t299 7q15 0 26 11t11 26v586h83l-1 -590q-2 -47 -35.5 -80t-80.5 -36q-151 -6 -302 -6t-302 6q-47 3 -80.5 36t-35.5 80z" />
    <glyph glyph-name="V" unicode="V" horiz-adv-x="776" 
d="M388 82l283 618h90l-320 -700h-106l-321 700h91z" />
    <glyph glyph-name="W" unicode="W" horiz-adv-x="1433" 
d="M1328 700h90l-320 -700h-106l-276 601l-275 -601h-106l-321 700h91l283 -618l283 618h45h46l283 -618z" />
    <glyph glyph-name="X" unicode="X" horiz-adv-x="952" 
d="M939 700l-401 -350l401 -350h-125l-338 295l-338 -295h-125l400 350l-400 350h125l338 -296l338 296h125z" />
    <glyph glyph-name="Y" unicode="Y" horiz-adv-x="966" 
d="M808 391v309h82v-384q-2 -111 -6 -193q-2 -47 -35.5 -80.5t-80.5 -35.5q-151 -7 -302 -7q-130 0 -281 7q-47 2 -80.5 35.5t-35.5 80.5q-2 31 -3 65h82q1 -31 3 -61q1 -16 11.5 -26.5t26.5 -11.5q149 -7 277 -7q149 0 298 7q16 1 26.5 11.5t11.5 26.5q3 57 5 182h-623
q-47 2 -80.5 35.5t-36.5 80.5v275h83v-271q0 -15 11 -26t26 -12h621z" />
    <glyph glyph-name="Y" unicode="&#x178;" horiz-adv-x="966" 
d="M808 391v309h82v-384q-2 -111 -6 -193q-2 -47 -35.5 -80.5t-80.5 -35.5q-151 -7 -302 -7q-130 0 -281 7q-47 2 -80.5 35.5t-35.5 80.5q-2 31 -3 65h82q1 -31 3 -61q1 -16 11.5 -26.5t26.5 -11.5q149 -7 277 -7q149 0 298 7q16 1 26.5 11.5t11.5 26.5q3 57 5 182h-623
q-47 2 -80.5 35.5t-36.5 80.5v275h83v-271q0 -15 11 -26t26 -12h621z" />
    <glyph glyph-name="Y" unicode="&#xdd;" horiz-adv-x="966" 
d="M808 391v309h82v-384q-2 -111 -6 -193q-2 -47 -35.5 -80.5t-80.5 -35.5q-151 -7 -302 -7q-130 0 -281 7q-47 2 -80.5 35.5t-35.5 80.5q-2 31 -3 65h82q1 -31 3 -61q1 -16 11.5 -26.5t26.5 -11.5q149 -7 277 -7q149 0 298 7q16 1 26.5 11.5t11.5 26.5q3 57 5 182h-623
q-47 2 -80.5 35.5t-36.5 80.5v275h83v-271q0 -15 11 -26t26 -12h621z" />
    <glyph glyph-name="Z" unicode="Z" horiz-adv-x="953" 
d="M476 295l-244 -213h655v-82h-874l400 350l307 267h-656v83h875z" />
    <glyph glyph-name="bracketleft" unicode="[" horiz-adv-x="279" 
d="M162 617v-535h52v-82h-134v700h134v-83h-52z" />
    <glyph glyph-name="backslash" unicode="\" horiz-adv-x="481" 
d="M300 119l-266 581h91l236 -515l84 -185h-90z" />
    <glyph glyph-name="bracketright" unicode="]" horiz-adv-x="279" 
d="M65 700h134v-700h-134v82h51v535h-51v83z" />
    <glyph glyph-name="asciicircum" unicode="^" horiz-adv-x="620" 
d="M468 451l-158 139l-159 -139h-125l284 248l283 -248h-125z" />
    <glyph glyph-name="underscore" unicode="_" horiz-adv-x="568" 
d="M27 82h514v-82h-514v82z" />
    <glyph glyph-name="a" unicode="a" horiz-adv-x="851" 
d="M746 0l-69 151h-503l-69 -151h-91l321 700h181l321 -700h-91zM212 233h427l-176 384h-75z" />
    <glyph glyph-name="a" unicode="&#xe5;" horiz-adv-x="851" 
d="M746 0l-69 151h-503l-69 -151h-91l321 700h181l321 -700h-91zM212 233h427l-176 384h-75z" />
    <glyph glyph-name="a" unicode="&#xe4;" horiz-adv-x="851" 
d="M746 0l-69 151h-503l-69 -151h-91l321 700h181l321 -700h-91zM212 233h427l-176 384h-75z" />
    <glyph glyph-name="a" unicode="&#xe3;" horiz-adv-x="851" 
d="M746 0l-69 151h-503l-69 -151h-91l321 700h181l321 -700h-91zM212 233h427l-176 384h-75z" />
    <glyph glyph-name="a" unicode="&#xe2;" horiz-adv-x="851" 
d="M746 0l-69 151h-503l-69 -151h-91l321 700h181l321 -700h-91zM212 233h427l-176 384h-75z" />
    <glyph glyph-name="a" unicode="&#xe1;" horiz-adv-x="851" 
d="M746 0l-69 151h-503l-69 -151h-91l321 700h181l321 -700h-91zM212 233h427l-176 384h-75z" />
    <glyph glyph-name="a" unicode="&#xe0;" horiz-adv-x="851" 
d="M746 0l-69 151h-503l-69 -151h-91l321 700h181l321 -700h-91zM212 233h427l-176 384h-75z" />
    <glyph glyph-name="b" unicode="b" horiz-adv-x="960" 
d="M838 419q28 -15 45 -42t19 -60v-201q-2 -47 -35.5 -80.5t-80.5 -35.5h-707v700h656q47 -3 80 -36.5t35 -80.5v-116q-1 -26 -12 -48zM730 617h-569v-184h570q15 1 25.5 12t11.5 26v109q-1 15 -11.5 26t-26.5 11zM820 120v193q-1 16 -12 26.5t-26 11.5l-621 -1v-268h621
q15 1 26 12t12 26z" />
    <glyph glyph-name="c" unicode="c" horiz-adv-x="966" 
d="M833 114q2 30 3 61h82q-1 -33 -2 -65q-3 -47 -36.5 -80.5t-80.5 -35.5q-151 -7 -302 -7t-302 7q-47 2 -80.5 35.5t-35.5 80.5q-12 240 0 480q2 47 35.5 80t80.5 35q151 7 302 7t302 -7q47 -2 80.5 -35t36.5 -80q1 -32 2 -65h-82q-1 31 -3 61q0 15 -11 26t-26 11
q-150 7 -299 7t-298 -7q-15 0 -26 -11t-12 -26q-12 -236 0 -472q1 -15 12 -26t26 -12q149 -7 298 -7t299 7q15 1 26 12t11 26z" />
    <glyph glyph-name="c" unicode="&#xe7;" horiz-adv-x="966" 
d="M833 114q2 30 3 61h82q-1 -33 -2 -65q-3 -47 -36.5 -80.5t-80.5 -35.5q-151 -7 -302 -7t-302 7q-47 2 -80.5 35.5t-35.5 80.5q-12 240 0 480q2 47 35.5 80t80.5 35q151 7 302 7t302 -7q47 -2 80.5 -35t36.5 -80q1 -32 2 -65h-82q-1 31 -3 61q0 15 -11 26t-26 11
q-150 7 -299 7t-298 -7q-15 0 -26 -11t-12 -26q-12 -236 0 -472q1 -15 12 -26t26 -12q149 -7 298 -7t299 7q15 1 26 12t11 26z" />
    <glyph glyph-name="d" unicode="d" horiz-adv-x="996" 
d="M97 0v617h-51v83h758q47 -3 80.5 -36t35.5 -80v-468q-2 -47 -35.5 -80.5t-80.5 -35.5h-707zM838 120v460q-1 15 -11.5 26t-26.5 11h-620v-535h620q16 1 26.5 12t11.5 26z" />
    <glyph glyph-name="e" unicode="e" horiz-adv-x="791" 
d="M737 617h-576v-226h576v-82h-576v-227h576v-82h-658v700h658v-83z" />
    <glyph glyph-name="e" unicode="&#xeb;" horiz-adv-x="791" 
d="M737 617h-576v-226h576v-82h-576v-227h576v-82h-658v700h658v-83z" />
    <glyph glyph-name="e" unicode="&#xea;" horiz-adv-x="791" 
d="M737 617h-576v-226h576v-82h-576v-227h576v-82h-658v700h658v-83z" />
    <glyph glyph-name="e" unicode="&#xe9;" horiz-adv-x="791" 
d="M737 617h-576v-226h576v-82h-576v-227h576v-82h-658v700h658v-83z" />
    <glyph glyph-name="e" unicode="&#xe8;" horiz-adv-x="791" 
d="M737 617h-576v-226h576v-82h-576v-227h576v-82h-658v700h658v-83z" />
    <glyph glyph-name="f" unicode="f" horiz-adv-x="766" 
d="M161 0h-82v700h658v-83h-576v-226h525v-82h-525v-309z" />
    <glyph glyph-name="g" unicode="g" horiz-adv-x="983" 
d="M351 307v83h451q47 -3 80.5 -36t35.5 -80v-99q-1 -33 -2 -65q-3 -47 -36.5 -80.5t-80.5 -35.5q-151 -7 -302 -7t-302 7q-47 2 -80.5 35.5t-35.5 80.5q-12 240 0 480q2 47 35.5 80t80.5 35q151 7 302 7t302 -7q47 -2 80.5 -35t35.5 -80q2 -31 3 -65h-82q-1 31 -3 61
q0 15 -11 26t-26 11q-150 7 -299 7t-298 -7q-15 0 -26 -11t-12 -26q-12 -236 0 -472q1 -15 12 -26t26 -12q149 -7 298 -7t299 7q15 1 26 12t11 26q2 30 3 61v95q-1 15 -11.5 26t-26.5 11h-447z" />
    <glyph glyph-name="h" unicode="h" 
d="M820 700h82v-700h-82v309h-659v-309h-82v700h82v-309h659v309z" />
    <glyph glyph-name="i" unicode="i" horiz-adv-x="241" 
d="M161 0h-82v700h82v-700z" />
    <glyph glyph-name="i" unicode="&#xef;" horiz-adv-x="241" 
d="M161 0h-82v700h82v-700z" />
    <glyph glyph-name="i" unicode="&#xee;" horiz-adv-x="241" 
d="M161 0h-82v700h82v-700z" />
    <glyph glyph-name="i" unicode="&#xed;" horiz-adv-x="241" 
d="M161 0h-82v700h82v-700z" />
    <glyph glyph-name="i" unicode="&#xec;" horiz-adv-x="241" 
d="M161 0h-82v700h82v-700z" />
    <glyph glyph-name="j" unicode="j" horiz-adv-x="429" 
d="M232 -3h-89q-47 2 -80.5 35.5t-35.5 80.5q-2 31 -3 65h82q1 -31 3 -61q1 -15 11.5 -26t26.5 -12h81q16 1 26.5 12t11.5 26q2 30 3 61v525h82v-525q-1 -34 -3 -65q-2 -47 -35.5 -80.5t-80.5 -35.5z" />
    <glyph glyph-name="k" unicode="k" horiz-adv-x="914" 
d="M903 700l-514 -350l514 -350h-146l-454 309h-141v-309h-82v699h82v-308h141l453 308z" />
    <glyph glyph-name="l" unicode="l" horiz-adv-x="670" 
d="M655 82v-82h-576v700h82v-618h494z" />
    <glyph glyph-name="m" unicode="m" horiz-adv-x="1084" 
d="M859 700h146v-700h-83v617h-14l-325 -617h-82l-326 617h-14v-617h-82v700h146l317 -601z" />
    <glyph glyph-name="n" unicode="n" 
d="M820 700h82v-700h-146l-571 617h-24v-617h-82v700h146l567 -618h28v618z" />
    <glyph glyph-name="n" unicode="&#xf1;" 
d="M820 700h82v-700h-146l-571 617h-24v-617h-82v700h146l567 -618h28v618z" />
    <glyph glyph-name="o" unicode="o" horiz-adv-x="995" 
d="M497 630q-149 0 -298 -7q-15 0 -26 -11t-12 -26q-12 -236 0 -472q1 -15 12 -26t26 -12q149 -7 298 -7t299 7q15 1 26 12t11 26q12 236 0 472q0 15 -11 26t-26 11q-150 7 -299 7zM195 705q151 7 302 7t302 -7q47 -2 80.5 -35t35.5 -80q13 -240 0 -480q-2 -47 -35.5 -80.5
t-80.5 -35.5q-151 -7 -302 -7t-302 7q-47 2 -80.5 35.5t-35.5 80.5q-12 240 0 480q2 47 35.5 80t80.5 35z" />
    <glyph glyph-name="o" unicode="&#xf8;" horiz-adv-x="995" 
d="M497 630q-149 0 -298 -7q-15 0 -26 -11t-12 -26q-12 -236 0 -472q1 -15 12 -26t26 -12q149 -7 298 -7t299 7q15 1 26 12t11 26q12 236 0 472q0 15 -11 26t-26 11q-150 7 -299 7zM195 705q151 7 302 7t302 -7q47 -2 80.5 -35t35.5 -80q13 -240 0 -480q-2 -47 -35.5 -80.5
t-80.5 -35.5q-151 -7 -302 -7t-302 7q-47 2 -80.5 35.5t-35.5 80.5q-12 240 0 480q2 47 35.5 80t80.5 35z" />
    <glyph glyph-name="o" unicode="&#xf6;" horiz-adv-x="995" 
d="M497 630q-149 0 -298 -7q-15 0 -26 -11t-12 -26q-12 -236 0 -472q1 -15 12 -26t26 -12q149 -7 298 -7t299 7q15 1 26 12t11 26q12 236 0 472q0 15 -11 26t-26 11q-150 7 -299 7zM195 705q151 7 302 7t302 -7q47 -2 80.5 -35t35.5 -80q13 -240 0 -480q-2 -47 -35.5 -80.5
t-80.5 -35.5q-151 -7 -302 -7t-302 7q-47 2 -80.5 35.5t-35.5 80.5q-12 240 0 480q2 47 35.5 80t80.5 35z" />
    <glyph glyph-name="o" unicode="&#xf5;" horiz-adv-x="995" 
d="M497 630q-149 0 -298 -7q-15 0 -26 -11t-12 -26q-12 -236 0 -472q1 -15 12 -26t26 -12q149 -7 298 -7t299 7q15 1 26 12t11 26q12 236 0 472q0 15 -11 26t-26 11q-150 7 -299 7zM195 705q151 7 302 7t302 -7q47 -2 80.5 -35t35.5 -80q13 -240 0 -480q-2 -47 -35.5 -80.5
t-80.5 -35.5q-151 -7 -302 -7t-302 7q-47 2 -80.5 35.5t-35.5 80.5q-12 240 0 480q2 47 35.5 80t80.5 35z" />
    <glyph glyph-name="o" unicode="&#xf4;" horiz-adv-x="995" 
d="M497 630q-149 0 -298 -7q-15 0 -26 -11t-12 -26q-12 -236 0 -472q1 -15 12 -26t26 -12q149 -7 298 -7t299 7q15 1 26 12t11 26q12 236 0 472q0 15 -11 26t-26 11q-150 7 -299 7zM195 705q151 7 302 7t302 -7q47 -2 80.5 -35t35.5 -80q13 -240 0 -480q-2 -47 -35.5 -80.5
t-80.5 -35.5q-151 -7 -302 -7t-302 7q-47 2 -80.5 35.5t-35.5 80.5q-12 240 0 480q2 47 35.5 80t80.5 35z" />
    <glyph glyph-name="o" unicode="&#xf3;" horiz-adv-x="995" 
d="M497 630q-149 0 -298 -7q-15 0 -26 -11t-12 -26q-12 -236 0 -472q1 -15 12 -26t26 -12q149 -7 298 -7t299 7q15 1 26 12t11 26q12 236 0 472q0 15 -11 26t-26 11q-150 7 -299 7zM195 705q151 7 302 7t302 -7q47 -2 80.5 -35t35.5 -80q13 -240 0 -480q-2 -47 -35.5 -80.5
t-80.5 -35.5q-151 -7 -302 -7t-302 7q-47 2 -80.5 35.5t-35.5 80.5q-12 240 0 480q2 47 35.5 80t80.5 35z" />
    <glyph glyph-name="o" unicode="&#xf2;" horiz-adv-x="995" 
d="M497 630q-149 0 -298 -7q-15 0 -26 -11t-12 -26q-12 -236 0 -472q1 -15 12 -26t26 -12q149 -7 298 -7t299 7q15 1 26 12t11 26q12 236 0 472q0 15 -11 26t-26 11q-150 7 -299 7zM195 705q151 7 302 7t302 -7q47 -2 80.5 -35t35.5 -80q13 -240 0 -480q-2 -47 -35.5 -80.5
t-80.5 -35.5q-151 -7 -302 -7t-302 7q-47 2 -80.5 35.5t-35.5 80.5q-12 240 0 480q2 47 35.5 80t80.5 35z" />
    <glyph glyph-name="p" unicode="p" horiz-adv-x="949" 
d="M902 583v-201q-2 -47 -35.5 -80t-80.5 -36h-625v-266h-82v700h707q31 -2 57 -17.5t41.5 -42t17.5 -57.5zM808 360q11 11 12 26v194q-1 15 -12 26t-26 11h-621v-267l621 -1q15 0 26 11z" />
    <glyph glyph-name="q" unicode="q" horiz-adv-x="995" 
d="M915 590q13 -240 0 -480q-1 -31 -17 -57t-42 -41.5t-57 -17.5q-36 -2 -77 -3l79 -54h-146l-75 51q-43 -1 -83 -1q-151 0 -302 7q-47 2 -80.5 35.5t-35.5 80.5q-12 240 0 480q2 47 35.5 80t80.5 35q151 7 302 7t302 -7q47 -2 80.5 -35t35.5 -80zM833 114q12 236 0 472
q0 15 -11 26t-26 11q-150 7 -299 7t-298 -7q-15 0 -26 -11t-12 -26q-12 -236 0 -472q1 -15 12 -26t26 -12q149 -7 298 -7t299 7q15 1 26 12t11 26z" />
    <glyph glyph-name="r" unicode="r" horiz-adv-x="930" 
d="M79 700h655q47 -3 80.5 -36.5t35.5 -80.5v-201q-2 -47 -35.5 -80t-80.5 -36h-223l391 -266h-146l-392 266h-203v-266h-82v700zM730 617h-569v-267l569 -1q16 0 26.5 11t11.5 26v194q-1 15 -11.5 26t-26.5 11z" />
    <glyph glyph-name="s" unicode="s" horiz-adv-x="953" 
d="M768 309h-587q-47 2 -80 35t-36 80v101q1 33 3 65q2 47 35.5 80.5t80.5 35.5q151 7 292.5 7t292.5 -7q47 -2 80.5 -35.5t35.5 -80.5q2 -32 3 -65h-82q-1 31 -3 61q-1 15 -11.5 26t-26.5 12q-149 6 -288.5 6t-288.5 -6q-16 -1 -26.5 -12t-11.5 -26q-1 -30 -3 -61v-96
q1 -16 12 -26.5t26 -11.5h587q47 -2 80.5 -35.5t35.5 -80.5v-101q-1 -33 -3 -64q-2 -48 -35.5 -81t-80.5 -35q-151 -7 -292.5 -7t-292.5 7q-47 2 -80.5 35t-35.5 81q-2 31 -3 64h82q1 -30 3 -60q1 -16 11.5 -26.5t26.5 -11.5q149 -7 288.5 -7t288.5 7q15 1 26 11.5t12 26.5
q1 30 3 60v97q-1 15 -12 26t-26 12z" />
    <glyph glyph-name="t" unicode="t" horiz-adv-x="689" 
d="M673 700v-83h-288v-617h-82v617h-288v83h658z" />
    <glyph glyph-name="u" unicode="u" horiz-adv-x="991" 
d="M77 116v590h82v-586q1 -15 12 -26t26 -11q149 -7 298 -7t299 7q15 0 26 11t11 26v586h83l-1 -590q-2 -47 -35.5 -80t-80.5 -36q-151 -6 -302 -6t-302 6q-47 3 -80.5 36t-35.5 80z" />
    <glyph glyph-name="u" unicode="&#xfc;" horiz-adv-x="991" 
d="M77 116v590h82v-586q1 -15 12 -26t26 -11q149 -7 298 -7t299 7q15 0 26 11t11 26v586h83l-1 -590q-2 -47 -35.5 -80t-80.5 -36q-151 -6 -302 -6t-302 6q-47 3 -80.5 36t-35.5 80z" />
    <glyph glyph-name="u" unicode="&#xfb;" horiz-adv-x="991" 
d="M77 116v590h82v-586q1 -15 12 -26t26 -11q149 -7 298 -7t299 7q15 0 26 11t11 26v586h83l-1 -590q-2 -47 -35.5 -80t-80.5 -36q-151 -6 -302 -6t-302 6q-47 3 -80.5 36t-35.5 80z" />
    <glyph glyph-name="u" unicode="&#xfa;" horiz-adv-x="991" 
d="M77 116v590h82v-586q1 -15 12 -26t26 -11q149 -7 298 -7t299 7q15 0 26 11t11 26v586h83l-1 -590q-2 -47 -35.5 -80t-80.5 -36q-151 -6 -302 -6t-302 6q-47 3 -80.5 36t-35.5 80z" />
    <glyph glyph-name="u" unicode="&#xf9;" horiz-adv-x="991" 
d="M77 116v590h82v-586q1 -15 12 -26t26 -11q149 -7 298 -7t299 7q15 0 26 11t11 26v586h83l-1 -590q-2 -47 -35.5 -80t-80.5 -36q-151 -6 -302 -6t-302 6q-47 3 -80.5 36t-35.5 80z" />
    <glyph glyph-name="v" unicode="v" horiz-adv-x="776" 
d="M388 82l283 618h90l-320 -700h-106l-321 700h91z" />
    <glyph glyph-name="w" unicode="w" horiz-adv-x="1433" 
d="M1328 700h90l-320 -700h-106l-276 601l-275 -601h-106l-321 700h91l283 -618l283 618h45h46l283 -618z" />
    <glyph glyph-name="x" unicode="x" horiz-adv-x="952" 
d="M939 700l-401 -350l401 -350h-125l-338 295l-338 -295h-125l400 350l-400 350h125l338 -296l338 296h125z" />
    <glyph glyph-name="y" unicode="y" horiz-adv-x="966" 
d="M808 391v309h82v-384q-2 -111 -6 -193q-2 -47 -35.5 -80.5t-80.5 -35.5q-151 -7 -302 -7q-130 0 -281 7q-47 2 -80.5 35.5t-35.5 80.5q-2 31 -3 65h82q1 -31 3 -61q1 -16 11.5 -26.5t26.5 -11.5q149 -7 277 -7q149 0 298 7q16 1 26.5 11.5t11.5 26.5q3 57 5 182h-623
q-47 2 -80.5 35.5t-36.5 80.5v275h83v-271q0 -15 11 -26t26 -12h621z" />
    <glyph glyph-name="y" unicode="&#xff;" horiz-adv-x="966" 
d="M808 391v309h82v-384q-2 -111 -6 -193q-2 -47 -35.5 -80.5t-80.5 -35.5q-151 -7 -302 -7q-130 0 -281 7q-47 2 -80.5 35.5t-35.5 80.5q-2 31 -3 65h82q1 -31 3 -61q1 -16 11.5 -26.5t26.5 -11.5q149 -7 277 -7q149 0 298 7q16 1 26.5 11.5t11.5 26.5q3 57 5 182h-623
q-47 2 -80.5 35.5t-36.5 80.5v275h83v-271q0 -15 11 -26t26 -12h621z" />
    <glyph glyph-name="y" unicode="&#xfd;" horiz-adv-x="966" 
d="M808 391v309h82v-384q-2 -111 -6 -193q-2 -47 -35.5 -80.5t-80.5 -35.5q-151 -7 -302 -7q-130 0 -281 7q-47 2 -80.5 35.5t-35.5 80.5q-2 31 -3 65h82q1 -31 3 -61q1 -16 11.5 -26.5t26.5 -11.5q149 -7 277 -7q149 0 298 7q16 1 26.5 11.5t11.5 26.5q3 57 5 182h-623
q-47 2 -80.5 35.5t-36.5 80.5v275h83v-271q0 -15 11 -26t26 -12h621z" />
    <glyph glyph-name="z" unicode="z" horiz-adv-x="953" 
d="M476 295l-244 -213h655v-82h-874l400 350l307 267h-656v83h875z" />
    <glyph glyph-name="braceleft" unicode="{" horiz-adv-x="299" 
d="M111 434v162q3 47 36.5 80t80.5 35h3v-82q-15 -1 -26 -11.5t-11 -25.5v-162q-3 -42 -31 -74q29 -32 31 -75v-161q0 -15 11 -26t26 -12v-82h-3q-47 2 -80.5 35.5t-36.5 80.5v161q0 15 -11 26t-26 12h-14v82h14q15 1 26 11.5t11 25.5z" />
    <glyph glyph-name="verticalbar" unicode="|" horiz-adv-x="243" 
d="M162 -79h-82v936h82v-936z" />
    <glyph glyph-name="braceright" unicode="}" horiz-adv-x="299" 
d="M187 596v-162q1 -15 11.5 -25.5t26.5 -11.5h13v-82h-13q-16 -1 -26.5 -12t-11.5 -26v-161q-2 -47 -35.5 -80.5t-80.5 -35.5h-4v82q15 1 26 12t12 26v161q2 43 30 75q-28 32 -30 74v162q-1 15 -12 25.5t-26 11.5v82h4q47 -2 80.5 -35t35.5 -80z" />
    <glyph glyph-name="asciitilde" unicode="~" horiz-adv-x="475" 
d="M327 308h-175q-15 0 -26 -11t-12 -26h-82v4q2 47 35.5 80.5t80.5 35.5h175q15 0 26 11t12 26h82v-4q-2 -47 -35.5 -80t-80.5 -36z" />
    <glyph glyph-name="nonbreakingspace" unicode="&#xa0;" horiz-adv-x="442" 
 />
    <glyph glyph-name="yen" unicode="&#xa5;" horiz-adv-x="930" 
d="M506 336h164v-83h-164v-41h164v-82h-164v-145h-82v145h-165v82h165v41h-165v83h165l-400 349h125l316 -276l316 276h125z" />
    <glyph glyph-name="section" unicode="&#xa7;" horiz-adv-x="967" 
d="M779 404q47 -2 80.5 -35.5t35.5 -80.5v-100q-1 -34 -3 -65q-2 -47 -35.5 -80.5t-80.5 -35.5q-151 -7 -292.5 -7t-292.5 7q-47 2 -80.5 35.5t-35.5 80.5q-2 31 -3 65h82q1 -31 3 -61q1 -16 11.5 -26.5t26.5 -11.5q149 -7 288.5 -7t288.5 7q15 1 26 11.5t12 26.5q1 30 3 61
v96q-1 15 -12 26t-26 12h-4v-21q-2 -31 -17.5 -57t-42 -41.5t-57.5 -16.5h-343q-47 2 -80 35.5t-36 80.5v20h-7q-47 2 -80 35t-36 81v100q1 33 3 65q2 47 35.5 80.5t80.5 35.5q151 7 292.5 7t292.5 -7q47 -2 80.5 -35.5t35.5 -80.5q2 -32 3 -65h-82q-1 31 -3 61
q-1 15 -11.5 26t-26.5 12q-149 7 -288.5 7t-288.5 -7q-16 -1 -26.5 -12t-11.5 -26q-1 -30 -3 -61v-96q1 -16 12 -26.5t26 -11.5h3v21q3 47 36.5 80t80.5 35h343q47 -2 80 -35.5t36 -80.5v-20h8zM677 279.5q11 10.5 11 25.5v17v82v16q0 16 -11 26.5t-26 11.5h-336
q-15 -1 -26 -11.5t-11 -26.5v-16v-82v-16q0 -16 11 -26.5t26 -11.5h336q15 1 26 11.5z" />
    <glyph glyph-name="guillemotleft" unicode="&#xab;" horiz-adv-x="860" 
d="M437 -15l-400 350l400 350h125l-400 -350l400 -350h-125zM700 -15l-400 350l400 350h125l-400 -350l400 -350h-125z" />
    <glyph glyph-name="softhyphen" unicode="&#xad;" horiz-adv-x="0" 
 />
    <glyph glyph-name="degree" unicode="&#xb0;" horiz-adv-x="459" 
d="M407 596v-123q-3 -47 -36.5 -80t-80.5 -35h-122q-47 2 -80.5 35.5t-35.5 80.5v122q2 48 35.5 81t80.5 35h123q47 -2 80 -35.5t36 -80.5zM313 451.5q11 10.5 11 25.5v115q0 16 -11 26.5t-26 11.5h-115q-15 -1 -26 -11.5t-12 -26.5v-114q1 -16 12 -26.5t26 -11.5h115
q15 1 26 11.5z" />
    <glyph glyph-name="plusminus" unicode="&#xb1;" horiz-adv-x="511" 
d="M50 -14v82h411v-82h-411zM461 377v-82h-164v-164h-83v164h-164v82h164v165h83v-165h164z" />
    <glyph glyph-name="guillemotright" unicode="&#xbb;" horiz-adv-x="900" 
d="M462 685l401 -350l-401 -350h-125l401 350l-401 350h125zM159 685l400 -350l-400 -350h-125l400 350l-400 350h125z" />
    <glyph glyph-name="Iocyrillic" unicode="&#x401;" horiz-adv-x="792" 
d="M559 746h-72v72h72v-72zM330 746h-71v72h71v-72zM738 617h-576v-226h576v-82h-576v-227h576v-82h-658v700h658v-83z" />
    <glyph glyph-name="Acyrillic" unicode="&#x410;" horiz-adv-x="851" 
d="M516 700l321 -700h-91l-69 151h-503l-69 -151h-91l321 700h181zM212 233h427l-176 384h-75z" />
    <glyph glyph-name="Becyrillic" unicode="&#x411;" horiz-adv-x="958" 
d="M786 433q31 -1 57 -17t41.5 -42t17.5 -57v-201q-2 -31 -17.5 -57t-41.5 -41.5t-57 -17.5h-707v700h771v-83h-689v-184h625zM820 120v193q-1 16 -12 26.5t-26 11.5l-621 -1v-268h621q15 1 26 12t12 26z" />
    <glyph glyph-name="Vecyrillic" unicode="&#x412;" horiz-adv-x="960" 
d="M838 419q28 -15 45 -42t19 -60v-201q-2 -47 -35.5 -80.5t-80.5 -35.5h-707v700h656q47 -3 80 -36.5t35 -80.5v-116q-1 -26 -12 -48zM161 617v-184h570q15 1 25.5 12t11.5 26v109q-1 15 -11.5 26t-26.5 11h-569zM820 120v193q-1 16 -12 26.5t-26 11.5l-621 -1v-268h621
q15 1 26 12t12 26z" />
    <glyph glyph-name="Gecyrillic" unicode="&#x413;" horiz-adv-x="670" 
d="M79 700h576v-83h-494v-617h-82v700z" />
    <glyph glyph-name="Decyrillic" unicode="&#x414;" horiz-adv-x="1017" 
d="M919 700v-618h52v-82h-926v82h51v502q3 47 36 80t81 36h706zM179 82h658v535h-621q-15 0 -26 -11t-11 -26v-498z" />
    <glyph glyph-name="Iecyrillic" unicode="&#x415;" horiz-adv-x="791" 
d="M737 617h-576v-226h576v-82h-576v-227h576v-82h-658v700h658v-83z" />
    <glyph glyph-name="Zhecyrillic" unicode="&#x416;" horiz-adv-x="1476" 
d="M1464 700l-514 -350l514 -350h-146l-454 309h-83v-309h-83v309h-55h-28l-453 -308l-147 -1l514 350l-514 349l146 1l454 -309h83v309h83v-309h55h28l453 308z" />
    <glyph glyph-name="Zecyrillic" unicode="&#x417;" horiz-adv-x="957" 
d="M883 467q-2 -43 -31 -75q29 -32 31 -75v-207q-3 -47 -36 -80.5t-80 -35.5q-151 -7 -299 -7q-151 0 -302 7q-47 2 -80.5 35.5t-35.5 80.5q-2 31 -3 65h82q1 -31 3 -61q1 -15 11.5 -26t26.5 -12q149 -7 298 -7q146 0 295 7q15 1 26 12t12 26v199q-1 16 -12 26.5t-26 11.5
l-446 -1v83h446q15 1 26 12t12 26v115q-1 15 -12 26t-26 11q-149 7 -295 7q-149 0 -298 -7q-16 0 -26.5 -11t-11.5 -26q-2 -31 -3 -61h-82q1 33 3 65q2 47 35.5 80t80.5 35q151 7 302 7q148 0 299 -7q47 -2 80 -35t36 -80v-123z" />
    <glyph glyph-name="Iicyrillic" unicode="&#x418;" 
d="M756 700h146v-700h-82v617h-24l-571 -617h-146v700h82v-618h28z" />
    <glyph glyph-name="Iishortcyrillic" unicode="&#x419;" horiz-adv-x="982" 
d="M445 698q-44 3 -75.5 34t-34.5 75h72q2 -14 12 -24q13 -12 30 -13h83q17 1 29 13q10 10 13 24h72q-3 -44 -34.5 -75t-76.5 -34h-90zM756 698h146v-698h-83v616h-23l-570 -616h-146v698h82v-616h28z" />
    <glyph glyph-name="Kacyrillic" unicode="&#x41a;" horiz-adv-x="914" 
d="M903 700l-514 -350l514 -350h-146l-454 309h-141v-309h-82v699h82v-308h141l453 308z" />
    <glyph glyph-name="Elcyrillic" unicode="&#x41b;" horiz-adv-x="999" 
d="M212 700h707v-700h-82v617h-581h-40q-15 0 -26 -11t-12 -26l1 -105v-70v-289q-3 -47 -36 -80.5t-80 -35.5h-18v82h14q15 1 26 12t11 26v221v243q3 47 36 80t80 36z" />
    <glyph glyph-name="Emcyrillic" unicode="&#x41c;" horiz-adv-x="1084" 
d="M859 700h146v-700h-83v617h-14l-325 -617h-82l-326 617h-14v-617h-82v700h146l317 -601l317 600v1z" />
    <glyph glyph-name="Encyrillic" unicode="&#x41d;" 
d="M820 700h82v-700h-82v309h-659v-309h-82v700h82v-309h659v309z" />
    <glyph glyph-name="Ocyrillic" unicode="&#x41e;" horiz-adv-x="995" 
d="M915 590q13 -240 1 -480q-3 -47 -36.5 -80.5t-80.5 -35.5q-151 -7 -302 -7t-302 7q-47 2 -80.5 35.5t-35.5 80.5q-12 240 0 480q1 18 7.5 35.5t17 31.5t24.5 24.5t31.5 17t35.5 6.5q151 7 302 7t302 -7q47 -2 80.5 -35t35.5 -80zM833 114q12 236 0 472q0 15 -11 26
t-26 11q-150 7 -299 7t-298 -7q-15 0 -26 -11t-12 -26q-12 -236 0 -472q1 -15 12 -26t26 -12q149 -7 298.5 -7t298.5 7q15 1 26 12t11 26z" />
    <glyph glyph-name="Pecyrillic" unicode="&#x41f;" 
d="M79 700h823v-700h-82v617h-659v-617h-82v617v83z" />
    <glyph glyph-name="Ercyrillic" unicode="&#x420;" horiz-adv-x="949" 
d="M902 583v-201q-2 -47 -35.5 -80t-80.5 -36h-625v-266h-82v700h707q47 -3 80.5 -36.5t35.5 -80.5zM808 360q11 11 12 26v194q-1 15 -12 26t-26 11h-621v-267l621 -1q15 0 26 11z" />
    <glyph glyph-name="Escyrillic" unicode="&#x421;" horiz-adv-x="966" 
d="M833 114q2 30 3 61h82q-1 -33 -2 -65q-3 -47 -36.5 -80.5t-80.5 -35.5q-151 -7 -302 -7t-302 7q-47 2 -80.5 35.5t-35.5 80.5q-12 240 0 480q2 47 35.5 80t80.5 35q151 7 302 7t302 -7q47 -2 80.5 -35t35.5 -80q2 -32 3 -65h-82q-1 31 -3 61q0 15 -11 26t-26 11
q-150 7 -299 7t-298 -7q-15 0 -26 -11t-12 -26q-12 -236 0 -472q1 -15 12 -26t26 -12q149 -7 298.5 -7t298.5 7q15 1 26 12t11 26z" />
    <glyph glyph-name="Tecyrillic" unicode="&#x422;" horiz-adv-x="689" 
d="M15 700h658v-83h-288v-617h-82v617h-288v83z" />
    <glyph glyph-name="Ucyrillic" unicode="&#x423;" horiz-adv-x="966" 
d="M808 700h82v-384q-2 -111 -6 -193q-2 -47 -35.5 -80.5t-80.5 -35.5q-151 -7 -302 -7q-130 0 -281 7q-47 2 -80.5 35.5t-35.5 80.5q-2 31 -3 65h82q1 -31 3 -61q1 -16 11.5 -26.5t26.5 -11.5q149 -7 277 -7q149 0 298 7q16 1 26.5 11.5t11.5 26.5q3 56 5 182h-623
q-47 2 -80.5 35.5t-36.5 80.5v275h83v-271q0 -16 11 -26.5t26 -11.5h621v309z" />
    <glyph glyph-name="Efcyrillic" unicode="&#x424;" horiz-adv-x="1024" 
d="M859 648q47 -2 80 -35.5t36 -80.5v-201q-2 -31 -17.5 -57t-41.5 -42t-57 -17h-306v-215h-82v215h-306q-47 2 -80.5 35.5t-35.5 80.5v201q2 47 35.5 80.5t80.5 35.5h306v52h82v-52h306zM169 297h302v268l-302 1q-15 -1 -26 -11.5t-12 -26.5v-193q1 -15 12 -26t26 -12z
M892 335l1 193q-1 16 -12 26.5t-26 11.5l-302 -1v-268h302q15 1 26 12t11 26z" />
    <glyph glyph-name="Khacyrillic" unicode="&#x425;" horiz-adv-x="952" 
d="M939 700l-401 -350l401 -350h-125l-338 295l-338 -295h-125l400 350l-400 350h125l338 -296l338 296h125z" />
    <glyph glyph-name="Tsecyrillic" unicode="&#x426;" horiz-adv-x="836" 
d="M738 82h52v-82h-710v700h82v-618h494v618h82v-618z" />
    <glyph glyph-name="Checyrillic" unicode="&#x427;" horiz-adv-x="782" 
d="M702 700v-384v-316h-83v309h-459q-47 2 -80.5 35.5t-35.5 80.5v275h82v-271q1 -16 12 -26.5t26 -11.5h456v309h82z" />
    <glyph glyph-name="Shacyrillic" unicode="&#x428;" horiz-adv-x="1035" 
d="M872 700h82v-700h-874v700h82v-618h314v618h82v-618h314v618z" />
    <glyph glyph-name="Shchacyrillic" unicode="&#x429;" horiz-adv-x="1052" 
d="M954 82h52v-82h-926v700h82v-618h314v618h82v-618h314v618h82v-618z" />
    <glyph glyph-name="Hardsigncyrillic" unicode="&#x42a;" horiz-adv-x="968" 
d="M804 433q47 -2 80.5 -35t35.5 -81v-201q-2 -47 -35 -80.5t-80 -35.5h-708v617h-51v83h134v-267h624zM838 120v193q-1 16 -11.5 26.5t-26.5 11.5l-620 -1v-268h620q16 1 26.5 12t11.5 26z" />
    <glyph glyph-name="Yericyrillic" unicode="&#x42b;" horiz-adv-x="1146" 
d="M1066 0h-82v700h82v-700zM786 433q47 -2 80.5 -35t35.5 -81v-201q-2 -47 -35.5 -80.5t-80.5 -35.5h-707v700h82v-267h625zM820 120v193q-1 16 -12 26.5t-26 11.5l-621 -1v-268h621q15 1 26 12t12 26z" />
    <glyph glyph-name="Softsigncyrillic" unicode="&#x42c;" horiz-adv-x="949" 
d="M786 433q47 -2 80.5 -35t35.5 -81v-201q-2 -47 -35.5 -80.5t-80.5 -35.5h-707v700h82v-267h625zM820 120v193q-1 16 -12 26.5t-26 11.5l-621 -1v-268h621q15 1 26 12t12 26z" />
    <glyph glyph-name="Ereversedcyrillic" unicode="&#x42d;" horiz-adv-x="966" 
d="M886 590q12 -240 0 -480q-2 -47 -35.5 -80.5t-80.5 -35.5q-151 -7 -302 -7t-302 7q-47 2 -80.5 35.5t-35.5 80.5q-2 32 -3 65h82q1 -31 3 -61q1 -15 11.5 -26t26.5 -12q149 -7 298 -7t298 7q16 1 26.5 12t11.5 26q5 96 6 195h-488v82h488q-1 98 -6 195q-1 15 -11.5 26
t-26.5 11q-149 7 -298 7t-298 -7q-16 0 -26.5 -11t-11.5 -26q-2 -30 -3 -61h-82q1 33 3 65q2 47 35.5 80t80.5 35q151 7 302 7t302 -7q47 -2 80.5 -35t35.5 -80z" />
    <glyph glyph-name="IUcyrillic" unicode="&#x42e;" horiz-adv-x="1092" 
d="M1013 590q12 -240 0 -480q-2 -31 -18 -57t-42 -42t-57 -17q-151 -7 -271 -7t-271 7q-47 2 -80.5 35.5t-35.5 80.5q-5 99 -6 199h-70v-309h-82v700h82v-309h70q1 100 6 199q2 47 35.5 80t80.5 35q151 7 271 7t271 -7q47 -2 80.5 -35t36.5 -80zM930 114q12 236 0 472
q0 15 -11 26t-26 11q-150 7 -268 7t-267 -7q-16 0 -26.5 -11t-11.5 -26q-12 -236 0 -472q1 -15 11.5 -26t26.5 -12q149 -7 267 -7t268 7q15 1 26 12t11 26z" />
    <glyph glyph-name="IAcyrillic" unicode="&#x42f;" horiz-adv-x="930" 
d="M195 700h656v-700h-82v266h-203l-392 -266h-146l391 266h-223q-47 3 -80.5 36t-35.5 80v201q2 47 35 80.5t80 36.5zM769 350v267h-569q-16 0 -26.5 -11t-11.5 -26v-194q1 -15 11.5 -26t26.5 -11z" />
    <glyph glyph-name="acyrillic" unicode="&#x430;" horiz-adv-x="851" 
d="M516 700l321 -700h-91l-69 151h-503l-69 -151h-91l321 700h181zM212 233h427l-176 384h-75z" />
    <glyph glyph-name="becyrillic" unicode="&#x431;" horiz-adv-x="958" 
d="M786 433q31 -1 57 -17t41.5 -42t17.5 -57v-201q-2 -31 -17.5 -57t-41.5 -41.5t-57 -17.5h-707v700h771v-83h-689v-184h625zM820 120v193q-1 16 -12 26.5t-26 11.5l-621 -1v-268h621q15 1 26 12t12 26z" />
    <glyph glyph-name="vecyrillic" unicode="&#x432;" horiz-adv-x="960" 
d="M838 419q28 -15 45 -42t19 -60v-201q-2 -47 -35.5 -80.5t-80.5 -35.5h-707v700h656q47 -3 80 -36.5t35 -80.5v-116q-1 -26 -12 -48zM161 617v-184h570q15 1 25.5 12t11.5 26v109q-1 15 -11.5 26t-26.5 11h-569zM820 120v193q-1 16 -12 26.5t-26 11.5l-621 -1v-268h621
q15 1 26 12t12 26z" />
    <glyph glyph-name="gecyrillic" unicode="&#x433;" horiz-adv-x="670" 
d="M79 700h576v-83h-494v-617h-82v700z" />
    <glyph glyph-name="decyrillic" unicode="&#x434;" horiz-adv-x="1017" 
d="M919 700v-618h52v-82h-926v82h51v502q3 47 36 80t81 36h706zM179 82h658v535h-621q-15 0 -26 -11t-11 -26v-498z" />
    <glyph glyph-name="iecyrillic" unicode="&#x435;" horiz-adv-x="791" 
d="M737 617h-576v-226h576v-82h-576v-227h576v-82h-658v700h658v-83z" />
    <glyph glyph-name="zhecyrillic" unicode="&#x436;" horiz-adv-x="1476" 
d="M1464 700l-514 -350l514 -350h-146l-454 309h-83v-309h-83v309h-55h-28l-453 -308l-147 -1l514 350l-514 349l146 1l454 -309h83v309h83v-309h55h28l453 308z" />
    <glyph glyph-name="zecyrillic" unicode="&#x437;" horiz-adv-x="957" 
d="M883 467q-2 -43 -31 -75q29 -32 31 -75v-207q-3 -47 -36 -80.5t-80 -35.5q-151 -7 -299 -7q-151 0 -302 7q-47 2 -80.5 35.5t-35.5 80.5q-2 31 -3 65h82q1 -31 3 -61q1 -15 11.5 -26t26.5 -12q149 -7 298 -7q146 0 295 7q15 1 26 12t12 26v199q-1 16 -12 26.5t-26 11.5
l-446 -1v83h446q15 1 26 12t12 26v115q-1 15 -12 26t-26 11q-149 7 -295 7q-149 0 -298 -7q-16 0 -26.5 -11t-11.5 -26q-2 -31 -3 -61h-82q1 33 3 65q2 47 35.5 80t80.5 35q151 7 302 7q148 0 299 -7q47 -2 80 -35t36 -80v-123z" />
    <glyph glyph-name="iicyrillic" unicode="&#x438;" 
d="M756 700h146v-700h-82v617h-24l-571 -617h-146v700h82v-618h28z" />
    <glyph glyph-name="iishortcyrillic" unicode="&#x439;" horiz-adv-x="982" 
d="M445 698q-44 3 -75.5 34t-34.5 75h72q2 -14 12 -24q13 -12 30 -13h83q17 1 29 13q10 10 13 24h72q-3 -44 -34.5 -75t-76.5 -34h-90zM756 698h146v-698h-83v616h-23l-570 -616h-146v698h82v-616h28z" />
    <glyph glyph-name="kacyrillic" unicode="&#x43a;" horiz-adv-x="914" 
d="M903 700l-514 -350l514 -350h-146l-454 309h-141v-309h-82v699h82v-308h141l453 308z" />
    <glyph glyph-name="elcyrillic" unicode="&#x43b;" horiz-adv-x="999" 
d="M212 700h707v-700h-82v617h-581h-40q-15 0 -26 -11t-12 -26l1 -105v-70v-289q-3 -47 -36 -80.5t-80 -35.5h-18v82h14q15 1 26 12t11 26v221v243q3 47 36 80t80 36z" />
    <glyph glyph-name="emcyrillic" unicode="&#x43c;" horiz-adv-x="1084" 
d="M859 700h146v-700h-83v617h-14l-325 -617h-82l-326 617h-14v-617h-82v700h146l317 -601l317 600v1z" />
    <glyph glyph-name="encyrillic" unicode="&#x43d;" 
d="M820 700h82v-700h-82v309h-659v-309h-82v700h82v-309h659v309z" />
    <glyph glyph-name="ocyrillic" unicode="&#x43e;" horiz-adv-x="995" 
d="M915 590q13 -240 1 -480q-3 -47 -36.5 -80.5t-80.5 -35.5q-151 -7 -302 -7t-302 7q-47 2 -80.5 35.5t-35.5 80.5q-12 240 0 480q1 18 7.5 35.5t17 31.5t24.5 24.5t31.5 17t35.5 6.5q151 7 302 7t302 -7q47 -2 80.5 -35t35.5 -80zM833 114q12 236 0 472q0 15 -11 26
t-26 11q-150 7 -299 7t-298 -7q-15 0 -26 -11t-12 -26q-12 -236 0 -472q1 -15 12 -26t26 -12q149 -7 298.5 -7t298.5 7q15 1 26 12t11 26z" />
    <glyph glyph-name="pecyrillic" unicode="&#x43f;" 
d="M79 700h823v-700h-82v617h-659v-617h-82v617v83z" />
    <glyph glyph-name="ercyrillic" unicode="&#x440;" horiz-adv-x="949" 
d="M902 583v-201q-2 -47 -35.5 -80t-80.5 -36h-625v-266h-82v700h707q47 -3 80.5 -36.5t35.5 -80.5zM808 360q11 11 12 26v194q-1 15 -12 26t-26 11h-621v-267l621 -1q15 0 26 11z" />
    <glyph glyph-name="escyrillic" unicode="&#x441;" horiz-adv-x="966" 
d="M833 114q2 30 3 61h82q-1 -33 -2 -65q-3 -47 -36.5 -80.5t-80.5 -35.5q-151 -7 -302 -7t-302 7q-47 2 -80.5 35.5t-35.5 80.5q-12 240 0 480q2 47 35.5 80t80.5 35q151 7 302 7t302 -7q47 -2 80.5 -35t35.5 -80q2 -32 3 -65h-82q-1 31 -3 61q0 15 -11 26t-26 11
q-150 7 -299 7t-298 -7q-15 0 -26 -11t-12 -26q-12 -236 0 -472q1 -15 12 -26t26 -12q149 -7 298.5 -7t298.5 7q15 1 26 12t11 26z" />
    <glyph glyph-name="tecyrillic" unicode="&#x442;" horiz-adv-x="689" 
d="M15 700h658v-83h-288v-617h-82v617h-288v83z" />
    <glyph glyph-name="ucyrillic" unicode="&#x443;" horiz-adv-x="966" 
d="M808 700h82v-384q-2 -111 -6 -193q-2 -47 -35.5 -80.5t-80.5 -35.5q-151 -7 -302 -7q-130 0 -281 7q-47 2 -80.5 35.5t-35.5 80.5q-2 31 -3 65h82q1 -31 3 -61q1 -16 11.5 -26.5t26.5 -11.5q149 -7 277 -7q149 0 298 7q16 1 26.5 11.5t11.5 26.5q3 56 5 182h-623
q-47 2 -80.5 35.5t-36.5 80.5v275h83v-271q0 -16 11 -26.5t26 -11.5h621v309z" />
    <glyph glyph-name="efcyrillic" unicode="&#x444;" horiz-adv-x="1024" 
d="M859 648q47 -2 80 -35.5t36 -80.5v-201q-2 -31 -17.5 -57t-41.5 -42t-57 -17h-306v-215h-82v215h-306q-47 2 -80.5 35.5t-35.5 80.5v201q2 47 35.5 80.5t80.5 35.5h306v52h82v-52h306zM169 297h302v268l-302 1q-15 -1 -26 -11.5t-12 -26.5v-193q1 -15 12 -26t26 -12z
M892 335l1 193q-1 16 -12 26.5t-26 11.5l-302 -1v-268h302q15 1 26 12t11 26z" />
    <glyph glyph-name="khacyrillic" unicode="&#x445;" horiz-adv-x="952" 
d="M939 700l-401 -350l401 -350h-125l-338 295l-338 -295h-125l400 350l-400 350h125l338 -296l338 296h125z" />
    <glyph glyph-name="tsecyrillic" unicode="&#x446;" horiz-adv-x="836" 
d="M738 82h52v-82h-710v700h82v-618h494v618h82v-618z" />
    <glyph glyph-name="checyrillic" unicode="&#x447;" horiz-adv-x="782" 
d="M702 700v-384v-316h-83v309h-459q-47 2 -80.5 35.5t-35.5 80.5v275h82v-271q1 -16 12 -26.5t26 -11.5h456v309h82z" />
    <glyph glyph-name="shacyrillic" unicode="&#x448;" horiz-adv-x="1035" 
d="M872 700h82v-700h-874v700h82v-618h314v618h82v-618h314v618z" />
    <glyph glyph-name="shchacyrillic" unicode="&#x449;" horiz-adv-x="1052" 
d="M954 82h52v-82h-926v700h82v-618h314v618h82v-618h314v618h82v-618z" />
    <glyph glyph-name="hardsigncyrillic" unicode="&#x44a;" horiz-adv-x="968" 
d="M804 433q47 -2 80.5 -35t35.5 -81v-201q-2 -47 -35 -80.5t-80 -35.5h-708v617h-51v83h134v-267h624zM838 120v193q-1 16 -11.5 26.5t-26.5 11.5l-620 -1v-268h620q16 1 26.5 12t11.5 26z" />
    <glyph glyph-name="yericyrillic" unicode="&#x44b;" horiz-adv-x="1146" 
d="M786 433q47 -2 80.5 -35t35.5 -81v-201q-2 -47 -35.5 -80.5t-80.5 -35.5h-707v700h82v-267h625zM820 120v193q-1 16 -12 26.5t-26 11.5l-621 -1v-268h621q15 1 26 12t12 26zM1066 0h-82v700h82v-700z" />
    <glyph glyph-name="softsigncyrillic" unicode="&#x44c;" horiz-adv-x="949" 
d="M786 433q47 -2 80.5 -35t35.5 -81v-201q-2 -47 -35.5 -80.5t-80.5 -35.5h-707v700h82v-267h625zM820 120v193q-1 16 -12 26.5t-26 11.5l-621 -1v-268h621q15 1 26 12t12 26z" />
    <glyph glyph-name="ereversedcyrillic" unicode="&#x44d;" horiz-adv-x="966" 
d="M886 590q12 -240 0 -480q-2 -47 -35.5 -80.5t-80.5 -35.5q-151 -7 -302 -7t-302 7q-47 2 -80.5 35.5t-35.5 80.5q-2 32 -3 65h82q1 -31 3 -61q1 -15 11.5 -26t26.5 -12q149 -7 298 -7t298 7q16 1 26.5 12t11.5 26q5 96 6 195h-488v82h488q-1 98 -6 195q-1 15 -11.5 26
t-26.5 11q-149 7 -298 7t-298 -7q-16 0 -26.5 -11t-11.5 -26q-2 -30 -3 -61h-82q1 33 3 65q2 47 35.5 80t80.5 35q151 7 302 7t302 -7q47 -2 80.5 -35t35.5 -80z" />
    <glyph glyph-name="iucyrillic" unicode="&#x44e;" horiz-adv-x="1092" 
d="M1013 590q12 -240 0 -480q-2 -31 -18 -57t-42 -42t-57 -17q-151 -7 -271 -7t-271 7q-47 2 -80.5 35.5t-35.5 80.5q-5 99 -6 199h-70v-309h-82v700h82v-309h70q1 100 6 199q2 47 35.5 80t80.5 35q151 7 271 7t271 -7q47 -2 80.5 -35t36.5 -80zM930 114q12 236 0 472
q0 15 -11 26t-26 11q-150 7 -268 7t-267 -7q-16 0 -26.5 -11t-11.5 -26q-12 -236 0 -472q1 -15 11.5 -26t26.5 -12q149 -7 267 -7t268 7q15 1 26 12t11 26z" />
    <glyph glyph-name="iacyrillic" unicode="&#x44f;" horiz-adv-x="930" 
d="M195 700h656v-700h-82v266h-203l-392 -266h-146l391 266h-223q-47 3 -80.5 36t-35.5 80v201q2 47 35 80.5t80 36.5zM769 350v267h-569q-16 0 -26.5 -11t-11.5 -26v-194q1 -15 11.5 -26t26.5 -11z" />
    <glyph glyph-name="iocyrillic" unicode="&#x451;" horiz-adv-x="792" 
d="M559 746h-72v72h72v-72zM330 746h-71v72h71v-72zM738 617h-576v-226h576v-82h-576v-227h576v-82h-658v700h658v-83z" />
    <glyph glyph-name="endash" unicode="&#x2013;" horiz-adv-x="465" 
d="M27 376h411v-82h-411v82z" />
    <glyph glyph-name="emdash" unicode="&#x2014;" horiz-adv-x="877" 
d="M27 376h823v-82h-823v82z" />
    <glyph glyph-name="perthousand" unicode="&#x2030;" horiz-adv-x="1479" 
d="M586 350l-62 -55l-338 -295h-125l400 350l63 54l338 296h125zM416 583v-122q-3 -47 -36.5 -80.5t-80.5 -35.5h-122q-47 2 -80.5 35.5t-35.5 80.5v123q2 47 35.5 80t80.5 36h123q47 -3 80 -36.5t36 -80.5zM322 438.5q11 10.5 11 26.5v115q0 15 -11 26t-26 11h-115
q-15 0 -26 -11t-12 -26v-115q1 -15 12 -26t26 -12h115q15 1 26 11.5zM987 238v-122q-3 -47 -36 -80.5t-80 -35.5h-123q-47 2 -80.5 35.5t-35.5 80.5v123q2 47 35.5 80t80.5 36h123q47 -3 80.5 -36.5t35.5 -80.5zM893 94q11 11 12 26l-1 115q0 15 -11 26t-26 11h-115
q-15 0 -26 -11t-12 -26v-115q1 -15 12 -26t26 -12h115q15 1 26 12zM1423 238l1 -122q-3 -47 -36.5 -80.5t-80.5 -35.5h-122q-47 2 -80.5 35.5t-35.5 80.5v123q2 47 35.5 80t80.5 36h123q47 -3 80 -36.5t35 -80.5zM1330 94q11 11 11 26v115q0 15 -11 26t-26 11h-115
q-15 0 -26 -11t-12 -26v-115q1 -15 11.5 -26t26.5 -12h115q15 1 26 12z" />
    <glyph glyph-name="Euro" unicode="&#x20ac;" horiz-adv-x="1022" 
d="M877 160h83q-2 -33 -3 -65q-3 -47 -36 -80t-80 -35q-151 -7 -302.5 -7t-302.5 7q-47 2 -80 35t-36 80q-3 68 -5 138h-52v82h51v41h-51v82h52q2 69 5 137q3 47 36 80.5t80 35.5q151 7 302.5 7t302.5 -7q47 -2 80 -35.5t36 -80.5q1 -31 3 -65h-83q-1 31 -2 61q-1 15 -12 26
t-26 12q-149 7 -298.5 7t-298.5 -7q-15 -1 -26 -12t-12 -26q-3 -65 -4 -133h487v-82h-488v-41h488v-82h-487q1 -68 4 -134q1 -15 12 -26t26 -11q149 -7 298.5 -7t298.5 7q15 0 26 11t12 26q1 30 2 61z" />
    <glyph glyph-name="uni20bd" unicode="&#x20bd;" horiz-adv-x="997" 
d="M935 569v-201q-2 -47 -35.5 -80.5t-80.5 -35.5h-624v-41h483v-82h-483v-144h-82v144h-52v82h52v474h707q47 -2 80 -35.5t35 -80.5zM841.5 345.5q10.5 10.5 11.5 26.5v193q-1 15 -11.5 26t-25.5 12h-621v-268l620 -1q16 1 26.5 11.5z" />
    <glyph glyph-name="numero" unicode="&#x2116;" horiz-adv-x="1398" 
d="M821 700h82v-700h-146l-571 617h-24v-617h-82v700h146l567 -618h28v618zM1342 583v-122q-2 -47 -35.5 -80.5t-80.5 -35.5h-123q-47 2 -80 35.5t-35 80.5v123q2 47 35.5 80t80.5 36h122q47 -3 80.5 -36.5t35.5 -80.5zM1248.5 438.5q10.5 10.5 11.5 26.5v115
q-1 15 -11.5 26t-26.5 11h-115q-15 0 -25.5 -11t-11.5 -26v-115q1 -15 11.5 -26t25.5 -12h115q16 1 26.5 11.5z" />
    <glyph glyph-name="minus" unicode="&#x2212;" horiz-adv-x="568" 
d="M27 376h514v-82h-514v82z" />
    <glyph glyph-name="Z.alt1" unicode="&#xf000;" horiz-adv-x="881" 
d="M852 655l-412 -360l-243 -213h655v-82h-823v45l349 305l306 267h-655v83h823v-45z" />
    <glyph glyph-name="z.alt1" unicode="&#xf001;" horiz-adv-x="881" 
d="M852 655l-412 -360l-243 -213h655v-82h-823v45l349 305l306 267h-655v83h823v-45z" />
    <glyph glyph-name="Y.alt1" unicode="&#xf002;" horiz-adv-x="890" 
d="M486 350v-350h-82v350l-400 350h125l316 -276l316 276h125z" />
    <glyph glyph-name="y.alt1" unicode="&#xf003;" horiz-adv-x="890" 
d="M486 350v-350h-82v350l-400 350h125l316 -276l316 276h125z" />
    <glyph glyph-name="G.alt1" unicode="&#xf004;" horiz-adv-x="988" 
d="M351 320v82h567v-214q-1 -33 -2 -65q-3 -47 -36.5 -80.5t-80.5 -35.5q-151 -7 -302 -7t-302 7q-47 2 -80.5 35.5t-35.5 80.5q-12 239 0 480q2 47 35.5 80t80.5 35q151 7 302 7t302 -7q47 -2 80.5 -35t36.5 -80q1 -33 2 -65h-82q-1 30 -3 60q0 16 -11 26.5t-26 11.5
q-150 7 -299 7t-298 -7q-15 -1 -26 -11.5t-12 -26.5q-12 -235 0 -471q1 -16 12 -26.5t26 -11.5q149 -7 298 -7t299 7q15 1 26 11.5t11 26.5q2 29 3 61v128v4h-5h-480z" />
    <glyph glyph-name="g.alt1" unicode="&#xf005;" horiz-adv-x="988" 
d="M351 320v82h567v-214q-1 -33 -2 -65q-3 -47 -36.5 -80.5t-80.5 -35.5q-151 -7 -302 -7t-302 7q-47 2 -80.5 35.5t-35.5 80.5q-12 239 0 480q2 47 35.5 80t80.5 35q151 7 302 7t302 -7q47 -2 80.5 -35t36.5 -80q1 -33 2 -65h-82q-1 30 -3 60q0 16 -11 26.5t-26 11.5
q-150 7 -299 7t-298 -7q-15 -1 -26 -11.5t-12 -26.5q-12 -235 0 -471q1 -16 12 -26.5t26 -11.5q149 -7 298 -7t299 7q15 1 26 11.5t11 26.5q2 29 3 61v128v4h-5h-480z" />
    <glyph glyph-name="Tsecyrillic.alt1" unicode="&#xf006;" horiz-adv-x="949" 
d="M851 82h52v-82h-823v700h82v-618h607v618h82v-618z" />
    <glyph glyph-name="tsecyrillic.alt1" unicode="&#xf007;" horiz-adv-x="949" 
d="M851 82h52v-82h-823v700h82v-618h607v618h82v-618z" />
    </font>
</defs>
</svg>
