<svg xmlns="http://www.w3.org/2000/svg" viewBox="0 0 48 48" id="molecule"><path fill="#e7f2f8" d="M47 7.06 35.75.63a.975.975 0 0 0-.99 0L24 6.78 13.25.63a.975.975 0 0 0-.99 0L1 7.06c-.31.18-.5.51-.5.87v12.86c0 .36.19.69.5.87l10.75 6.14v12.28c0 .36.19.69.5.87l11.25 6.43c.15.09.32.13.5.13s.34-.04.5-.13l11.25-6.43c.31-.18.5-.51.5-.87V27.79L47 21.65c.31-.18.5-.51.5-.87V7.93c0-.36-.19-.69-.5-.87zM2.5 20.21V8.51l10.25-5.86L23 8.51v11.7l-4.06 2.32-6.19 3.54L2.5 20.21zm31.75 19.28L24 45.35l-10.25-5.86v-11.7l4.06-2.32L24 21.94l6.19 3.54 4.06 2.32v11.69zM45.5 20.21l-10.25 5.86-6.19-3.54L25 20.21V8.51l10.25-5.86L45.5 8.51v11.7z"></path></svg>